<?xml version="1.0" encoding="UTF-8" standalone="no"?>
<svg width="1200" height="500" viewBox="0 0 1200 500" xmlns="http://www.w3.org/2000/svg">
  <!-- Background gradient -->
  <defs>
    <linearGradient id="bg-gradient" x1="0%" y1="0%" x2="100%" y2="100%">
      <stop offset="0%" style="stop-color:#1a2238;stop-opacity:1" />
      <stop offset="100%" style="stop-color:#0d1119;stop-opacity:1" />
    </linearGradient>
    
    <!-- Overlay gradient -->
    <linearGradient id="overlay-gradient" x1="0%" y1="0%" x2="100%" y2="100%">
      <stop offset="0%" style="stop-color:#ff6a3d;stop-opacity:0.1" />
      <stop offset="100%" style="stop-color:#ff6a3d;stop-opacity:0.05" />
    </linearGradient>
    
    <!-- Pattern for background -->
    <pattern id="pattern" width="50" height="50" patternUnits="userSpaceOnUse">
      <circle cx="25" cy="25" r="1" fill="#ffffff" fill-opacity="0.1" />
    </pattern>
  </defs>
  
  <!-- Main background -->
  <rect width="1200" height="500" fill="url(#bg-gradient)"/>
  
  <!-- Pattern overlay -->
  <rect width="1200" height="500" fill="url(#pattern)"/>
  
  <!-- Accent overlay -->
  <rect width="1200" height="500" fill="url(#overlay-gradient)"/>
  
  <!-- Decorative elements -->
  <circle cx="200" cy="100" r="80" fill="#ff6a3d" fill-opacity="0.1"/>
  <circle cx="1000" cy="400" r="120" fill="#ff6a3d" fill-opacity="0.1"/>
  
  <!-- Shoe silhouettes -->
  <path d="M800,300 C850,280 900,290 950,320 C980,340 990,370 980,400 C970,430 940,450 900,450 C850,450 800,430 780,400 C760,370 770,330 800,300 Z" fill="#ffffff" fill-opacity="0.1"/>
  <path d="M700,350 C730,330 760,330 790,350 C810,365 820,390 810,410 C800,430 780,440 750,440 C720,440 700,430 690,410 C680,390 685,365 700,350 Z" fill="#ffffff" fill-opacity="0.1"/>
  
  <!-- Abstract shoe outlines -->
  <path d="M850,200 C900,180 950,190 980,220 C1000,240 1010,270 1000,300 C990,330 960,350 920,350 C870,350 830,330 810,300 C790,270 800,230 850,200 Z" stroke="#ff6a3d" stroke-width="2" fill="none"/>
  <path d="M750,250 C780,230 810,230 840,250 C860,265 870,290 860,310 C850,330 830,340 800,340 C770,340 750,330 740,310 C730,290 735,265 750,250 Z" stroke="#ff6a3d" stroke-width="2" fill="none"/>
</svg>
