<?xml version="1.0" encoding="UTF-8" standalone="no"?>
<svg width="300px" height="200px" viewBox="0 0 300 200" version="1.1" xmlns="http://www.w3.org/2000/svg" xmlns:xlink="http://www.w3.org/1999/xlink">
    <title>Athletic Category</title>
    <defs>
        <linearGradient x1="0%" y1="0%" x2="100%" y2="100%" id="linearGradient-1">
            <stop stop-color="#1a2238" offset="0%"></stop>
            <stop stop-color="#0d1119" offset="100%"></stop>
        </linearGradient>
    </defs>
    <g id="Page-1" stroke="none" stroke-width="1" fill="none" fill-rule="evenodd">
        <rect id="Background" fill="url(#linearGradient-1)" x="0" y="0" width="300" height="200"></rect>
        <g id="Athletic-Icon" transform="translate(100, 50)" fill="#FFFFFF" fill-opacity="0.8">
            <path d="M50,0 C77.6,0 100,22.4 100,50 C100,77.6 77.6,100 50,100 C22.4,100 0,77.6 0,50 C0,22.4 22.4,0 50,0 Z M50,10 C27.9,10 10,27.9 10,50 C10,72.1 27.9,90 50,90 C72.1,90 90,72.1 90,50 C90,27.9 72.1,10 50,10 Z" id="Running-Track"></path>
            <path d="M60,30 L80,50 L60,70 L40,70 L20,50 L40,30 L60,30 Z" id="Shoe-Outline"></path>
        </g>
        <text id="Athletic" font-family="Arial, sans-serif" font-size="16" font-weight="bold" fill="#FFFFFF">
            <tspan x="125" y="180">Athletic</tspan>
        </text>
    </g>
</svg>
